<mxfile host="Electron" agent="Mozilla/5.0 (X11; Linux x86_64) AppleWebKit/537.36 (KHTML, like Gecko) draw.io/24.7.8 Chrome/128.0.6613.36 Electron/32.0.1 Safari/537.36" version="24.7.8">
  <diagram id="C5RBs43oDa-KdzZeNtuy" name="Page-1">
    <mxGraphModel dx="1238" dy="1141" grid="1" gridSize="10" guides="1" tooltips="1" connect="1" arrows="1" fold="1" page="1" pageScale="1" pageWidth="1600" pageHeight="900" math="0" shadow="0">
      <root>
        <mxCell id="WIyWlLk6GJQsqaUBKTNV-0" />
        <mxCell id="WIyWlLk6GJQsqaUBKTNV-1" parent="WIyWlLk6GJQsqaUBKTNV-0" />
        <mxCell id="7Nyb7SeAyECjhD8aBmaa-7" style="edgeStyle=orthogonalEdgeStyle;rounded=0;orthogonalLoop=1;jettySize=auto;html=1;exitX=0.5;exitY=1;exitDx=0;exitDy=0;entryX=0;entryY=0.25;entryDx=0;entryDy=0;entryPerimeter=0;" edge="1" parent="WIyWlLk6GJQsqaUBKTNV-1" source="WIyWlLk6GJQsqaUBKTNV-3" target="7Nyb7SeAyECjhD8aBmaa-0">
          <mxGeometry relative="1" as="geometry">
            <mxPoint x="120" y="110" as="targetPoint" />
          </mxGeometry>
        </mxCell>
        <mxCell id="WIyWlLk6GJQsqaUBKTNV-3" value="&lt;b&gt;SENS_1&lt;/b&gt; &amp;gt; Threshold_1" style="rounded=0;whiteSpace=wrap;html=1;fontSize=12;glass=0;strokeWidth=1;shadow=0;fillColor=#f0a30a;strokeColor=#BD7000;fontColor=#000000;" parent="WIyWlLk6GJQsqaUBKTNV-1" vertex="1">
          <mxGeometry x="40" y="40" width="160" height="40" as="geometry" />
        </mxCell>
        <mxCell id="7Nyb7SeAyECjhD8aBmaa-8" style="edgeStyle=orthogonalEdgeStyle;rounded=0;orthogonalLoop=1;jettySize=auto;html=1;entryX=0;entryY=0.75;entryDx=0;entryDy=0;entryPerimeter=0;" edge="1" parent="WIyWlLk6GJQsqaUBKTNV-1" source="WIyWlLk6GJQsqaUBKTNV-7" target="7Nyb7SeAyECjhD8aBmaa-0">
          <mxGeometry relative="1" as="geometry">
            <mxPoint x="120" y="130" as="targetPoint" />
          </mxGeometry>
        </mxCell>
        <mxCell id="WIyWlLk6GJQsqaUBKTNV-7" value="&lt;b&gt;SENS_2&lt;/b&gt; &amp;gt; Threshold_2" style="rounded=0;whiteSpace=wrap;html=1;fontSize=12;glass=0;strokeWidth=1;shadow=0;fillColor=#f0a30a;fontColor=#000000;strokeColor=#BD7000;" parent="WIyWlLk6GJQsqaUBKTNV-1" vertex="1">
          <mxGeometry x="40" y="160" width="160" height="40" as="geometry" />
        </mxCell>
        <mxCell id="7Nyb7SeAyECjhD8aBmaa-0" value="AND" style="shape=or;whiteSpace=wrap;html=1;" vertex="1" parent="WIyWlLk6GJQsqaUBKTNV-1">
          <mxGeometry x="200" y="100" width="40" height="40" as="geometry" />
        </mxCell>
        <mxCell id="7Nyb7SeAyECjhD8aBmaa-39" style="edgeStyle=orthogonalEdgeStyle;rounded=0;orthogonalLoop=1;jettySize=auto;html=1;exitX=1;exitY=0.5;exitDx=0;exitDy=0;exitPerimeter=0;entryX=0;entryY=0.5;entryDx=0;entryDy=0;" edge="1" parent="WIyWlLk6GJQsqaUBKTNV-1" source="7Nyb7SeAyECjhD8aBmaa-5" target="7Nyb7SeAyECjhD8aBmaa-38">
          <mxGeometry relative="1" as="geometry" />
        </mxCell>
        <mxCell id="7Nyb7SeAyECjhD8aBmaa-5" value="OR" style="shape=or;whiteSpace=wrap;html=1;" vertex="1" parent="WIyWlLk6GJQsqaUBKTNV-1">
          <mxGeometry x="360" y="110" width="40" height="40" as="geometry" />
        </mxCell>
        <mxCell id="7Nyb7SeAyECjhD8aBmaa-6" style="edgeStyle=orthogonalEdgeStyle;rounded=0;orthogonalLoop=1;jettySize=auto;html=1;entryX=0;entryY=0.25;entryDx=0;entryDy=0;entryPerimeter=0;" edge="1" parent="WIyWlLk6GJQsqaUBKTNV-1" source="7Nyb7SeAyECjhD8aBmaa-0" target="7Nyb7SeAyECjhD8aBmaa-5">
          <mxGeometry relative="1" as="geometry" />
        </mxCell>
        <mxCell id="7Nyb7SeAyECjhD8aBmaa-10" style="edgeStyle=orthogonalEdgeStyle;rounded=0;orthogonalLoop=1;jettySize=auto;html=1;entryX=0;entryY=0.75;entryDx=0;entryDy=0;entryPerimeter=0;exitX=1;exitY=0.5;exitDx=0;exitDy=0;" edge="1" parent="WIyWlLk6GJQsqaUBKTNV-1" source="7Nyb7SeAyECjhD8aBmaa-11" target="7Nyb7SeAyECjhD8aBmaa-5">
          <mxGeometry relative="1" as="geometry">
            <mxPoint x="320" y="330" as="sourcePoint" />
            <Array as="points">
              <mxPoint x="320" y="290" />
              <mxPoint x="320" y="140" />
            </Array>
          </mxGeometry>
        </mxCell>
        <mxCell id="7Nyb7SeAyECjhD8aBmaa-11" value="&lt;b&gt;SENS_1&lt;/b&gt; OR &lt;b&gt;SENS_2&lt;/b&gt;&lt;div&gt;&lt;b&gt;NOT&lt;/b&gt; WITHIN&amp;nbsp;&lt;/div&gt;&lt;div&gt;0.5V - 4.5V&lt;/div&gt;" style="rounded=0;whiteSpace=wrap;html=1;fontSize=12;glass=0;strokeWidth=1;shadow=0;fillColor=#f0a30a;fontColor=#000000;strokeColor=#BD7000;" vertex="1" parent="WIyWlLk6GJQsqaUBKTNV-1">
          <mxGeometry x="50" y="260" width="140" height="60" as="geometry" />
        </mxCell>
        <mxCell id="7Nyb7SeAyECjhD8aBmaa-16" value="BSPD&amp;nbsp;&lt;span style=&quot;background-color: initial;&quot;&gt;Cuts off power&lt;/span&gt;" style="rounded=1;whiteSpace=wrap;html=1;fontSize=12;glass=0;strokeWidth=1;shadow=0;fillColor=#a20025;fontColor=#ffffff;strokeColor=#6F0000;" vertex="1" parent="WIyWlLk6GJQsqaUBKTNV-1">
          <mxGeometry x="420" y="310" width="130" height="30" as="geometry" />
        </mxCell>
        <mxCell id="7Nyb7SeAyECjhD8aBmaa-20" style="edgeStyle=orthogonalEdgeStyle;rounded=0;orthogonalLoop=1;jettySize=auto;html=1;exitX=0.5;exitY=1;exitDx=0;exitDy=0;entryX=0.5;entryY=0;entryDx=0;entryDy=0;" edge="1" parent="WIyWlLk6GJQsqaUBKTNV-1" source="7Nyb7SeAyECjhD8aBmaa-18" target="7Nyb7SeAyECjhD8aBmaa-16">
          <mxGeometry relative="1" as="geometry" />
        </mxCell>
        <mxCell id="7Nyb7SeAyECjhD8aBmaa-27" style="edgeStyle=orthogonalEdgeStyle;rounded=0;orthogonalLoop=1;jettySize=auto;html=1;entryX=0;entryY=0.5;entryDx=0;entryDy=0;" edge="1" parent="WIyWlLk6GJQsqaUBKTNV-1" source="7Nyb7SeAyECjhD8aBmaa-18" target="7Nyb7SeAyECjhD8aBmaa-24">
          <mxGeometry relative="1" as="geometry">
            <Array as="points">
              <mxPoint x="485" y="245" />
            </Array>
          </mxGeometry>
        </mxCell>
        <mxCell id="7Nyb7SeAyECjhD8aBmaa-18" value="500ms delay" style="rounded=0;whiteSpace=wrap;html=1;fontSize=12;glass=0;strokeWidth=1;shadow=0;" vertex="1" parent="WIyWlLk6GJQsqaUBKTNV-1">
          <mxGeometry x="435" y="190" width="100" height="30" as="geometry" />
        </mxCell>
        <mxCell id="7Nyb7SeAyECjhD8aBmaa-24" value="" style="triangle;whiteSpace=wrap;html=1;" vertex="1" parent="WIyWlLk6GJQsqaUBKTNV-1">
          <mxGeometry x="550" y="230" width="25" height="30" as="geometry" />
        </mxCell>
        <mxCell id="7Nyb7SeAyECjhD8aBmaa-29" style="edgeStyle=orthogonalEdgeStyle;rounded=0;orthogonalLoop=1;jettySize=auto;html=1;entryX=0;entryY=0.5;entryDx=0;entryDy=0;" edge="1" parent="WIyWlLk6GJQsqaUBKTNV-1" source="7Nyb7SeAyECjhD8aBmaa-25" target="7Nyb7SeAyECjhD8aBmaa-28">
          <mxGeometry relative="1" as="geometry" />
        </mxCell>
        <mxCell id="7Nyb7SeAyECjhD8aBmaa-25" value="" style="ellipse;whiteSpace=wrap;html=1;aspect=fixed;" vertex="1" parent="WIyWlLk6GJQsqaUBKTNV-1">
          <mxGeometry x="575" y="240" width="10" height="10" as="geometry" />
        </mxCell>
        <mxCell id="7Nyb7SeAyECjhD8aBmaa-31" style="edgeStyle=orthogonalEdgeStyle;rounded=0;orthogonalLoop=1;jettySize=auto;html=1;entryX=0.5;entryY=0;entryDx=0;entryDy=0;" edge="1" parent="WIyWlLk6GJQsqaUBKTNV-1" source="7Nyb7SeAyECjhD8aBmaa-28" target="7Nyb7SeAyECjhD8aBmaa-30">
          <mxGeometry relative="1" as="geometry" />
        </mxCell>
        <mxCell id="7Nyb7SeAyECjhD8aBmaa-28" value="10s Delay" style="rounded=0;whiteSpace=wrap;html=1;fontSize=12;glass=0;strokeWidth=1;shadow=0;" vertex="1" parent="WIyWlLk6GJQsqaUBKTNV-1">
          <mxGeometry x="622.5" y="230" width="100" height="30" as="geometry" />
        </mxCell>
        <mxCell id="7Nyb7SeAyECjhD8aBmaa-30" value="Automatic BSPD Reset&lt;div&gt;(Power re-connected)&lt;/div&gt;" style="rounded=1;whiteSpace=wrap;html=1;fontSize=12;glass=0;strokeWidth=1;shadow=0;fillColor=#60a917;fontColor=#ffffff;strokeColor=#2D7600;" vertex="1" parent="WIyWlLk6GJQsqaUBKTNV-1">
          <mxGeometry x="600" y="335" width="145" height="40" as="geometry" />
        </mxCell>
        <mxCell id="7Nyb7SeAyECjhD8aBmaa-40" style="edgeStyle=orthogonalEdgeStyle;rounded=0;orthogonalLoop=1;jettySize=auto;html=1;entryX=0.5;entryY=0;entryDx=0;entryDy=0;" edge="1" parent="WIyWlLk6GJQsqaUBKTNV-1" source="7Nyb7SeAyECjhD8aBmaa-38" target="7Nyb7SeAyECjhD8aBmaa-18">
          <mxGeometry relative="1" as="geometry" />
        </mxCell>
        <mxCell id="7Nyb7SeAyECjhD8aBmaa-38" value="BSPD Logic triggered" style="rounded=1;whiteSpace=wrap;html=1;fontSize=12;glass=0;strokeWidth=1;shadow=0;" vertex="1" parent="WIyWlLk6GJQsqaUBKTNV-1">
          <mxGeometry x="420" y="115" width="130" height="30" as="geometry" />
        </mxCell>
        <mxCell id="7Nyb7SeAyECjhD8aBmaa-41" value="&lt;i&gt;If BSPD Logic is no longer triggered for 10s&lt;/i&gt;" style="text;html=1;align=left;verticalAlign=middle;whiteSpace=wrap;rounded=0;" vertex="1" parent="WIyWlLk6GJQsqaUBKTNV-1">
          <mxGeometry x="687.5" y="280" width="130" height="30" as="geometry" />
        </mxCell>
        <mxCell id="7Nyb7SeAyECjhD8aBmaa-44" value="&lt;i&gt;SCS triggered&lt;/i&gt;&lt;div&gt;&lt;i&gt;(Sensor out of reasonable range)&lt;/i&gt;&lt;/div&gt;" style="text;html=1;align=left;verticalAlign=middle;whiteSpace=wrap;rounded=0;" vertex="1" parent="WIyWlLk6GJQsqaUBKTNV-1">
          <mxGeometry x="210" y="240" width="130" height="30" as="geometry" />
        </mxCell>
      </root>
    </mxGraphModel>
  </diagram>
</mxfile>
